<!--?xml version="1.0" encoding="utf-8"?-->
<!-- Generator: Adobe Illustrator 18.1.1, SVG Export Plug-In . SVG Version: 6.00 Build 0)  -->

<svg version="1.1" id="_x31_0" xmlns="http://www.w3.org/2000/svg" xmlns:xlink="http://www.w3.org/1999/xlink" x="0px" y="0px" viewBox="0 0 512 512" style="width: 256px; height: 256px; opacity: 1;" xml:space="preserve">
<style type="text/css">
	.st0{fill:#374149;}
</style>
<g>
	<path class="st0" d="M45.386,496.227v1.668l0,0v0.16H466.61V223.758H45.386V496.227z M401.367,403.586h-19.61v-41.359
		c0-2.047-0.274-3.75-0.82-5.055c-0.535-1.281-1.242-2.32-2.11-3.078c-0.898-0.79-1.867-1.344-2.961-1.696
		c-1.145-0.374-2.274-0.554-3.363-0.554c-1.09,0-2.219,0.18-3.355,0.554c-1.086,0.344-2.086,0.914-2.969,1.696
		c-0.875,0.766-1.61,1.812-2.18,3.109c-0.582,1.297-0.875,2.985-0.875,5.024v41.269v0.09h-19.609v-93.062h19.609v17.152
		l-0.102,10.84c0.031-0.023,0.07-0.035,0.102-0.058v0.183c1.539-1.211,3.203-2.187,4.973-2.938c2.871-1.21,6.054-1.828,9.457-1.828
		c3.462,0,6.629,0.547,9.406,1.618c2.805,1.086,5.242,2.656,7.246,4.656c2.878,2.882,4.816,6.023,5.77,9.336
		c0.922,3.203,1.39,6.726,1.39,10.469v43.527V403.586z M322.558,310.594l-21.082,42.16l-9.68,19.195l0.082,0.004l-0.082,0.156
		h14.414l0.042,0.004v-0.004h0.161v-16.781h18.976v16.519v0.102l0,0v0.16h8.203v18.734h-8.203v12.742h-18.976v-12.742h-36.727
		v-17.133l31.406-63.187h14.898L322.558,310.594z M199.594,268.094c14.641,0,28.742,3.644,41.29,10.246
		c3.062,1.66,6.062,3.473,8.937,5.527c-5.148-1.374-10.554-2.094-16.148-2.094c-1.383,0-2.715,0.055-4.031,0.164
		c-9.539-3.882-19.641-5.843-30.047-5.843c-44.644,0-80.961,36.32-80.961,80.961s36.317,80.961,80.961,80.961
		c11.039,0,21.625-2.156,31.473-6.406h9.266l7.488,0.129c-14.262,9.266-31.007,14.278-48.226,14.278
		c-49.054,0-88.961-39.906-88.961-88.961C110.633,308,150.539,268.094,199.594,268.094z M259.91,349.062
		c-0.848,1.688-1.922,3.375-3.199,5.008c-1.234,1.57-2.618,3.25-4.149,5.039l-13.726,15.934l-9.114,10.414l0.137,0.004l-0.137,0.156
		h32.817v17.969h-57.848v-16.961l33.958-39.446c1.578-1.82,2.702-3.469,3.351-4.914c0.617-1.382,0.934-3.031,0.934-4.898
		c0-2.976-0.778-5.297-2.371-7.07c-1.546-1.726-3.797-2.562-6.882-2.562c-1.184,0-2.375,0.172-3.531,0.508
		c-1.094,0.313-2.059,0.828-2.95,1.578c-0.855,0.718-1.554,1.703-2.082,2.938c-0.546,1.273-0.82,2.906-0.82,4.859v1.602h-19.606
		v-1.602c0-4.313,0.746-8.242,2.211-11.672c1.473-3.438,3.558-6.406,6.199-8.813c2.621-2.406,5.734-4.258,9.25-5.507
		c3.485-1.234,7.298-1.86,11.329-1.86c4.109,0,7.984,0.649,11.523,1.93c3.562,1.289,6.652,3.148,9.187,5.507
		c2.555,2.375,4.578,5.321,6.008,8.758c1.422,3.43,2.141,7.312,2.141,11.531c0,2.304-0.226,4.406-0.676,6.25
		C261.414,345.57,260.758,347.36,259.91,349.062z" style="fill: rgb(117, 102, 92);"></path>
	<polygon class="st0" points="0,124.613 0,195.207 0,195.636 0,195.636 0,195.796 512,195.796 512,124.613 	" style="fill: rgb(117, 102, 92);"></polygon>
	<polygon class="st0" points="38.062,102.246 38.062,102.406 83.914,102.406 84.054,102.41 84.054,102.406 84.215,102.406 
		84.215,60.097 426.894,60.097 427.782,60.097 427.782,101.992 427.782,102.246 427.782,102.246 427.782,102.406 473.934,102.406 
		473.934,13.945 38.062,13.945 38.062,101.711 38.062,102.246 	" style="fill: rgb(117, 102, 92);"></polygon>
</g>
</svg>
