<svg xmlns="http://www.w3.org/2000/svg" xmlns:xlink="http://www.w3.org/1999/xlink" width="2500" zoomAndPan="magnify" viewBox="0 0 1874.88 225" height="300" preserveAspectRatio="xMidYMid meet" version="1.0"><defs><g/><clipPath id="a8981a1e58"><path d="M 24 4.789062 L 261.734375 4.789062 L 261.734375 220.027344 L 24 220.027344 Z M 24 4.789062 " clip-rule="nonzero"/></clipPath></defs><path fill="#fdf1de" d="M 142.859375 216.476562 C 198.058594 216.476562 258.105469 205.542969 258.105469 164.128906 C 258.105469 101.1875 203.496094 8.34375 142.867188 8.34375 C 82.234375 8.339844 27.628906 101.183594 27.628906 164.128906 C 27.628906 205.550781 87.675781 216.476562 142.871094 216.476562 Z M 142.859375 216.476562 " fill-opacity="1" fill-rule="nonzero"/><path fill="#75665c" d="M 189.757812 155.75 C 189.757812 147.683594 183.203125 141.140625 175.109375 141.140625 L 110.621094 141.140625 C 102.535156 141.140625 95.972656 147.679688 95.972656 155.75 L 95.972656 213.355469 C 110.992188 215.585938 127.125 216.476562 142.867188 216.476562 C 158.605469 216.476562 174.738281 215.585938 189.757812 213.355469 Z M 189.757812 155.75 " fill-opacity="1" fill-rule="nonzero"/><g clip-path="url(#a8981a1e58)"><path fill="#75665c" d="M 226.164062 60.628906 C 214.917969 44.160156 201.898438 30.433594 188.515625 20.933594 C 173.421875 10.222656 158.0625 4.785156 142.859375 4.785156 C 127.660156 4.785156 112.304688 10.222656 97.207031 20.933594 C 83.824219 30.4375 70.808594 44.160156 59.554688 60.628906 C 37.667969 92.683594 24.0625 132.339844 24.0625 164.128906 C 24.0625 174.917969 27.835938 184.367188 35.28125 192.222656 C 41.808594 199.109375 51.25 204.816406 63.339844 209.179688 C 88.1875 218.148438 120.296875 220.035156 142.867188 220.035156 L 142.871094 220.035156 C 165.433594 220.035156 197.546875 218.148438 222.398438 209.179688 C 234.488281 204.816406 243.925781 199.109375 250.453125 192.222656 C 257.894531 184.371094 261.671875 174.917969 261.671875 164.128906 C 261.671875 132.34375 248.066406 92.683594 226.171875 60.632812 Z M 142.867188 212.921875 C 127.078125 212.921875 112.519531 212.019531 99.535156 210.261719 L 99.535156 155.75 C 99.535156 149.65625 104.507812 144.695312 110.621094 144.695312 L 175.113281 144.695312 C 181.226562 144.695312 186.199219 149.652344 186.199219 155.75 L 186.199219 210.261719 C 173.21875 212.019531 158.65625 212.921875 142.871094 212.921875 Z M 245.269531 187.339844 C 239.515625 193.410156 231.003906 198.507812 219.96875 202.492188 C 212.300781 205.261719 203.355469 207.5 193.324219 209.183594 L 193.324219 155.75 C 193.324219 145.738281 185.15625 137.585938 175.109375 137.585938 L 110.621094 137.585938 C 100.582031 137.585938 92.40625 145.730469 92.40625 155.75 L 92.40625 209.183594 C 82.375 207.5 73.433594 205.261719 65.761719 202.492188 C 54.726562 198.507812 46.21875 193.410156 40.460938 187.339844 C 34.222656 180.757812 31.191406 173.164062 31.191406 164.128906 C 31.191406 133.695312 44.320312 95.570312 65.453125 64.632812 C 88.351562 31.117188 116.5625 11.894531 142.867188 11.894531 C 169.167969 11.894531 197.382812 31.113281 220.277344 64.632812 C 241.410156 95.570312 254.539062 133.695312 254.539062 164.128906 C 254.539062 173.164062 251.507812 180.761719 245.269531 187.339844 Z M 245.269531 187.339844 " fill-opacity="1" fill-rule="nonzero"/></g><path fill="#75665c" d="M 159.5 92.320312 C 157.625 91.71875 155.625 92.726562 155.023438 94.601562 C 155.015625 94.617188 154.375 96.414062 152.570312 98.144531 C 150.199219 100.417969 146.933594 101.570312 142.867188 101.570312 C 133.257812 101.570312 130.808594 94.882812 130.722656 94.636719 C 130.125 92.769531 128.117188 91.742188 126.242188 92.339844 C 124.371094 92.9375 123.335938 94.941406 123.9375 96.808594 C 124.09375 97.292969 127.925781 108.679688 142.867188 108.679688 C 157.804688 108.679688 161.640625 97.292969 161.792969 96.808594 C 162.398438 94.941406 161.371094 92.917969 159.492188 92.320312 Z M 159.5 92.320312 " fill-opacity="1" fill-rule="nonzero"/><path fill="#75665c" d="M 110.191406 70.625 C 105.851562 70.625 102.320312 74.148438 102.320312 78.472656 C 102.320312 82.800781 105.851562 86.320312 110.191406 86.320312 C 114.527344 86.320312 118.058594 82.800781 118.058594 78.472656 C 118.058594 74.148438 114.527344 70.625 110.191406 70.625 Z M 110.191406 70.625 " fill-opacity="1" fill-rule="nonzero"/><path fill="#75665c" d="M 175.542969 70.625 C 171.203125 70.625 167.671875 74.148438 167.671875 78.472656 C 167.671875 82.800781 171.203125 86.320312 175.542969 86.320312 C 179.878906 86.320312 183.410156 82.800781 183.410156 78.472656 C 183.410156 74.148438 179.878906 70.625 175.542969 70.625 Z M 175.542969 70.625 " fill-opacity="1" fill-rule="nonzero"/><g fill="#75665c" fill-opacity="1"><g transform="translate(277.820845, 196.360775)"><g><path d="M 174.175781 -46.613281 C 174.402344 -53.433594 174.402344 -60.710938 174.402344 -68.214844 C 174.402344 -82.765625 174.175781 -97.320312 174.175781 -106.640625 C 174.175781 -119.601562 166.445312 -129.835938 148.253906 -130.289062 C 140.976562 -130.515625 131.882812 -130.515625 122.105469 -130.515625 C 100.730469 -130.515625 76.398438 -130.0625 58.890625 -129.378906 C 54.34375 -129.152344 52.070312 -125.96875 52.070312 -123.011719 C 52.070312 -120.058594 54.34375 -117.328125 58.890625 -117.328125 L 59.347656 -117.328125 C 77.765625 -118.238281 105.960938 -118.921875 127.789062 -118.921875 C 134.382812 -118.921875 140.523438 -118.921875 145.523438 -118.691406 C 153.484375 -118.464844 160.078125 -115.511719 160.53125 -104.59375 C 160.757812 -98 160.988281 -86.175781 160.988281 -74.355469 C 160.988281 -64.804688 160.757812 -55.253906 160.53125 -48.886719 C 160.078125 -39.5625 154.621094 -34.789062 142.796875 -33.878906 C 131.882812 -33.199219 110.28125 -32.742188 89.589844 -32.742188 C 77.539062 -32.742188 65.714844 -32.96875 56.617188 -33.199219 L 56.164062 -33.199219 C 51.617188 -33.199219 49.34375 -30.242188 49.34375 -27.058594 C 49.34375 -23.875 52.070312 -20.238281 57.300781 -20.238281 C 81.175781 -20.238281 120.058594 -20.238281 144.613281 -21.601562 C 162.125 -22.511719 173.71875 -30.46875 174.175781 -46.613281 Z M 174.175781 -46.613281 "/></g></g></g><g fill="#75665c" fill-opacity="1"><g transform="translate(505.188691, 196.360775)"><g><path d="M 193.730469 -118.464844 C 194.640625 -120.058594 194.867188 -121.648438 194.867188 -123.011719 C 194.867188 -127.332031 191.226562 -129.835938 187.816406 -129.835938 C 185.316406 -129.835938 182.816406 -128.472656 181.679688 -125.96875 C 159.621094 -77.082031 111.191406 -32.515625 61.847656 -20.007812 C 56.84375 -18.871094 54.800781 -15.460938 54.800781 -12.507812 C 54.800781 -8.867188 57.753906 -5.230469 62.757812 -5.230469 C 71.851562 -5.230469 152.347656 -33.425781 193.730469 -118.464844 Z M 92.542969 -98.457031 C 96.636719 -98.457031 100.046875 -102.550781 100.046875 -106.640625 C 100.046875 -108.914062 99.136719 -110.960938 97.09375 -112.554688 C 81.175781 -124.832031 54.117188 -132.789062 52.296875 -132.789062 C 48.203125 -132.789062 45.703125 -129.152344 45.703125 -125.96875 C 45.703125 -123.46875 46.839844 -121.195312 49.570312 -120.511719 C 60.9375 -117.328125 78.445312 -109.597656 87.542969 -100.730469 C 89.132812 -99.136719 90.953125 -98.457031 92.542969 -98.457031 Z M 92.542969 -98.457031 "/></g></g></g><g fill="#75665c" fill-opacity="1"><g transform="translate(732.556536, 196.360775)"><g><path d="M 204.871094 -131.199219 C 207.828125 -131.199219 210.78125 -133.929688 210.78125 -137.109375 C 210.78125 -145.75 185.316406 -157.804688 181.222656 -157.804688 C 177.8125 -157.804688 175.539062 -155.300781 175.539062 -153.027344 C 175.539062 -151.664062 176.449219 -150.070312 178.496094 -149.164062 C 185.542969 -146.207031 196.457031 -138.703125 201.003906 -133.246094 C 202.140625 -131.882812 203.507812 -131.199219 204.871094 -131.199219 Z M 186.453125 -114.601562 C 189.183594 -114.601562 191.910156 -117.101562 191.910156 -120.285156 C 191.910156 -128.015625 168.945312 -141.429688 162.804688 -141.429688 C 159.394531 -141.429688 157.121094 -138.929688 157.121094 -136.65625 C 157.121094 -135.066406 158.03125 -133.699219 160.078125 -132.789062 C 166.898438 -129.835938 177.8125 -122.332031 182.359375 -116.648438 C 183.496094 -115.28125 184.863281 -114.601562 186.453125 -114.601562 Z M 76.171875 -74.582031 C 102.09375 -77.992188 140.292969 -89.589844 162.351562 -97.09375 C 166.898438 -98.683594 168.945312 -101.640625 168.945312 -104.59375 C 168.945312 -107.777344 166.214844 -110.960938 161.894531 -110.960938 C 160.757812 -110.960938 159.394531 -110.734375 157.804688 -110.054688 C 139.386719 -102.09375 95.273438 -89.589844 76.628906 -86.40625 C 76.628906 -90.269531 77.765625 -135.519531 77.765625 -140.75 C 77.765625 -144.613281 74.125 -146.890625 70.714844 -146.890625 C 67.53125 -146.890625 64.578125 -145.070312 64.578125 -140.75 C 64.347656 -115.054688 62.984375 -67.988281 62.984375 -42.976562 C 62.984375 -12.507812 77.992188 -7.277344 118.238281 -7.277344 C 137.339844 -7.277344 157.804688 -9.09375 171.21875 -12.507812 C 176.675781 -13.871094 178.949219 -17.054688 178.949219 -20.007812 C 178.949219 -23.421875 175.992188 -26.605469 171.902344 -26.605469 C 170.765625 -26.605469 169.625 -26.375 168.488281 -25.921875 C 155.757812 -21.601562 129.152344 -19.554688 110.507812 -19.554688 C 89.132812 -19.554688 75.261719 -22.054688 75.261719 -39.792969 C 75.261719 -44.566406 75.945312 -68.214844 76.171875 -74.582031 Z M 76.171875 -74.582031 "/></g></g></g><g fill="#75665c" fill-opacity="1"><g transform="translate(959.924381, 196.360775)"><g><path d="M 158.257812 -115.738281 C 144.386719 -115.511719 128.015625 -115.28125 111.871094 -115.28125 C 95.957031 -115.28125 80.039062 -115.511719 67.304688 -115.738281 L 67.078125 -115.738281 C 61.847656 -115.738281 59.347656 -112.554688 59.347656 -109.371094 C 59.347656 -106.414062 61.621094 -103.230469 65.941406 -103.230469 C 77.992188 -103.003906 94.816406 -103.003906 111.871094 -103.003906 C 128.699219 -103.003906 145.75 -103.003906 157.804688 -103.230469 C 162.578125 -103.230469 164.851562 -106.414062 164.851562 -109.371094 C 164.851562 -112.554688 162.578125 -115.738281 158.484375 -115.738281 Z M 189.863281 -25.011719 C 193.957031 -25.011719 196.457031 -28.421875 196.457031 -31.832031 C 196.457031 -35.015625 194.410156 -37.972656 189.636719 -37.972656 C 167.582031 -38.425781 135.066406 -38.882812 104.140625 -38.882812 C 79.8125 -38.882812 56.390625 -38.65625 39.5625 -38.199219 C 34.5625 -38.199219 32.289062 -35.015625 32.289062 -31.832031 C 32.289062 -28.421875 34.5625 -25.238281 39.109375 -25.238281 L 39.335938 -25.238281 C 57.980469 -25.695312 81.402344 -25.921875 105.503906 -25.921875 C 134.835938 -25.921875 165.078125 -25.695312 189.636719 -25.011719 Z M 189.863281 -25.011719 "/></g></g></g><g fill="#75665c" fill-opacity="1"><g transform="translate(1187.292227, 196.360775)"><g><path d="M 197.140625 -105.960938 C 198.050781 -107.550781 198.503906 -109.144531 198.503906 -110.734375 C 198.503906 -114.828125 195.546875 -118.011719 191.910156 -118.011719 C 189.636719 -118.011719 187.136719 -116.648438 185.316406 -113.691406 C 157.347656 -68.214844 96.863281 -28.878906 85.496094 -28.878906 C 81.859375 -28.878906 79.582031 -31.378906 79.582031 -36.382812 L 79.582031 -37.289062 C 80.039062 -50.933594 80.71875 -90.496094 80.71875 -115.511719 C 80.71875 -122.785156 80.492188 -128.699219 80.492188 -132.335938 C 80.492188 -137.109375 76.855469 -139.613281 73.445312 -139.613281 C 70.035156 -139.613281 66.851562 -137.339844 66.851562 -132.5625 L 66.851562 -132.109375 C 67.078125 -126.652344 67.078125 -116.191406 67.078125 -103.6875 C 67.078125 -80.492188 66.851562 -50.023438 66.394531 -32.742188 L 66.394531 -31.832031 C 66.394531 -19.101562 73.671875 -13.1875 82.539062 -13.1875 C 103.6875 -13.1875 171.902344 -66.394531 197.140625 -105.960938 Z M 197.140625 -105.960938 "/></g></g></g><g fill="#75665c" fill-opacity="1"><g transform="translate(1414.660072, 196.360775)"><g><path d="M 108.460938 -108.6875 C 112.328125 -108.6875 115.28125 -112.097656 115.28125 -115.964844 C 115.28125 -125.742188 79.8125 -142.570312 76.628906 -142.570312 C 72.761719 -142.570312 70.261719 -139.386719 70.261719 -136.203125 C 70.261719 -134.382812 71.398438 -132.335938 73.671875 -131.425781 C 83.449219 -127.5625 95.5 -119.375 103.457031 -111.191406 C 105.050781 -109.597656 106.871094 -108.6875 108.460938 -108.6875 Z M 198.503906 -115.28125 C 199.414062 -117.101562 199.867188 -118.691406 199.867188 -120.058594 C 199.867188 -124.152344 196.457031 -126.425781 193.046875 -126.425781 C 190.773438 -126.425781 188.273438 -125.289062 187.136719 -122.785156 C 162.578125 -70.261719 114.601562 -26.375 63.667969 -12.734375 C 59.574219 -11.597656 57.980469 -8.867188 57.980469 -6.140625 C 57.980469 -2.730469 60.9375 0.910156 65.484375 0.910156 C 70.488281 0.910156 153.710938 -24.785156 198.503906 -115.28125 Z M 44.566406 -95.957031 C 40.246094 -95.957031 37.972656 -92.542969 37.972656 -89.359375 C 37.972656 -87.085938 39.335938 -84.8125 42.292969 -84.359375 C 52.753906 -82.765625 65.941406 -77.765625 75.492188 -71.398438 C 76.855469 -70.488281 78.21875 -70.035156 79.582031 -70.035156 C 83.222656 -70.035156 86.175781 -73.445312 86.175781 -77.082031 C 86.175781 -79.355469 85.039062 -81.628906 82.3125 -83.222656 C 66.851562 -92.089844 44.566406 -95.957031 44.566406 -95.957031 Z M 44.566406 -95.957031 "/></g></g></g><g fill="#75665c" fill-opacity="1"><g transform="translate(1642.027918, 196.360775)"><g><path d="M 208.964844 -138.929688 C 208.964844 -151.4375 198.730469 -161.667969 186.226562 -161.667969 C 173.71875 -161.667969 163.488281 -151.4375 163.488281 -138.929688 C 163.488281 -126.425781 173.71875 -116.417969 186.226562 -116.417969 C 198.730469 -116.417969 208.964844 -126.425781 208.964844 -138.929688 Z M 76.171875 -74.582031 C 102.09375 -77.992188 140.292969 -89.589844 162.351562 -97.09375 C 166.898438 -98.683594 168.945312 -101.640625 168.945312 -104.59375 C 168.945312 -107.777344 166.214844 -110.960938 161.894531 -110.960938 C 160.757812 -110.960938 159.394531 -110.734375 157.804688 -110.054688 C 139.386719 -102.09375 95.273438 -89.589844 76.628906 -86.40625 C 76.628906 -90.269531 77.765625 -135.519531 77.765625 -140.75 C 77.765625 -144.613281 74.125 -146.890625 70.714844 -146.890625 C 67.53125 -146.890625 64.578125 -145.070312 64.578125 -140.75 C 64.347656 -115.054688 62.984375 -67.988281 62.984375 -42.976562 C 62.984375 -12.507812 77.992188 -7.277344 118.238281 -7.277344 C 137.339844 -7.277344 157.804688 -9.09375 171.21875 -12.507812 C 176.675781 -13.871094 178.949219 -17.054688 178.949219 -20.007812 C 178.949219 -23.421875 175.992188 -26.605469 171.902344 -26.605469 C 170.765625 -26.605469 169.625 -26.375 168.488281 -25.921875 C 155.757812 -21.601562 129.152344 -19.554688 110.507812 -19.554688 C 89.132812 -19.554688 75.261719 -22.054688 75.261719 -39.792969 C 75.261719 -44.566406 75.945312 -68.214844 76.171875 -74.582031 Z M 200.550781 -138.929688 C 200.550781 -130.972656 193.957031 -124.832031 186.226562 -124.832031 C 178.496094 -124.832031 171.902344 -131.199219 171.902344 -138.929688 C 171.902344 -146.660156 178.265625 -153.253906 186.226562 -153.253906 C 193.957031 -153.253906 200.550781 -146.660156 200.550781 -138.929688 Z M 200.550781 -138.929688 "/></g></g></g></svg>